<?xml version="1.0" standalone="no"?>
<!DOCTYPE svg PUBLIC "-//W3C//DTD SVG 20010904//EN"
 "http://www.w3.org/TR/2001/REC-SVG-20010904/DTD/svg10.dtd">
<svg version="1.0" xmlns="http://www.w3.org/2000/svg"
 width="192.000000pt" height="192.000000pt" viewBox="0 0 192.000000 192.000000"
 preserveAspectRatio="xMidYMid meet">
<metadata>
Created by potrace 1.11, written by Peter Selinger 2001-2013
</metadata>
<g transform="translate(0.000000,192.000000) scale(0.100000,-0.100000)"
fill="#000000" stroke="none">
<path d="M880 1325 c-168 -27 -263 -112 -289 -256 -24 -141 -11 -159 112 -159
45 0 88 4 95 9 7 4 17 34 22 67 18 123 46 154 143 154 50 0 58 -3 84 -34 25
-27 31 -45 36 -101 4 -38 11 -73 17 -79 14 -14 191 -20 210 -7 12 8 15 29 13
96 -2 74 -6 93 -33 144 -18 33 -42 68 -53 79 -38 35 -140 79 -198 85 -30 4
-62 8 -70 10 -8 2 -48 -1 -89 -8z"/>
<path d="M320 1190 c-52 -38 -132 -94 -178 -126 -188 -129 -189 -196 -3 -325
47 -33 131 -91 186 -129 101 -71 122 -79 143 -58 18 18 16 158 -3 185 -8 11
-55 51 -105 88 -49 37 -90 72 -90 79 0 6 30 32 67 56 37 24 84 61 105 82 38
38 38 39 38 116 0 126 -23 131 -160 32z"/>
<path d="M1452 1248 c-7 -7 -12 -43 -12 -93 0 -94 -1 -92 128 -186 45 -34 82
-65 82 -69 0 -9 -49 -48 -120 -94 -82 -54 -91 -72 -88 -167 5 -128 15 -129
183 -7 44 31 110 79 148 105 86 61 97 71 125 110 25 37 29 75 7 93 -8 7 -15
18 -15 26 0 13 -29 37 -172 138 -46 32 -114 80 -152 107 -71 50 -93 58 -114
37z"/>
<path d="M617 824 c-13 -13 -7 -108 8 -138 8 -15 15 -34 15 -41 0 -33 116
-125 157 -125 10 0 24 -5 31 -12 20 -20 184 -23 241 -4 27 9 57 16 66 16 25 0
145 126 145 153 0 13 5 28 11 34 6 6 12 35 13 65 l1 53 -91 3 -92 3 -5 -33
c-7 -49 -29 -101 -53 -124 -32 -32 -103 -48 -150 -34 -71 21 -104 62 -114 140
l-5 45 -85 3 c-47 1 -89 0 -93 -4z"/>
</g>
</svg>
