<svg width="15px" height="16px" viewBox="0 0 15 16" fill="#EE5522" xmlns="http://www.w3.org/2000/svg">
  <g id="category" transform="translate(-1246.000000, -52.500000)" >
      <path d="M1258.39258,61.4004016 C1259.29102,61.6543074 1259.97461,62.171884 1260.44336,62.9531323 C1260.81445,63.5390684 1261,64.1738326 1261,64.8574246 L1261,65.5898447 C1261,66.2148431 1260.77539,66.7519515 1260.32617,67.201169 C1259.87695,67.6503865 1259.33984,67.8749955 1258.71484,67.8749955 L1248.28516,67.8749955 C1247.66016,67.8749955 1247.12305,67.6503865 1246.67383,67.201169 C1246.22461,66.7519515 1246,66.2148431 1246,65.5898447 L1246,64.8574246 C1246,64.1738326 1246.18555,63.5293029 1246.55664,62.9238355 C1247.02539,62.1621185 1247.70898,61.6543074 1248.60742,61.4004016 L1249.22266,61.2246208 C1248.55859,60.3066543 1248.22656,59.2812662 1248.22656,58.1484562 C1248.22656,57.1914271 1248.46094,56.3076404 1248.92969,55.4970954 C1249.39844,54.6865503 1250.03809,54.0469035 1250.84863,53.5781546 C1251.65918,53.1094057 1252.54297,52.8750313 1253.5,52.8750313 C1254.45703,52.8750313 1255.34082,53.1094057 1256.15137,53.5781546 C1256.96191,54.0469035 1257.60156,54.6865503 1258.07031,55.4970954 C1258.53906,56.3076404 1258.77344,57.1914271 1258.77344,58.1484562 C1258.77344,59.2812662 1258.44141,60.3066543 1257.77734,61.2246208 L1258.39258,61.4004016 Z M1253.49998,54.2812779 C1252.79686,54.2812779 1252.15233,54.4570588 1251.56639,54.8086204 C1250.98046,55.1601821 1250.51171,55.628931 1250.16015,56.2148671 C1249.80858,56.8008032 1249.6328,57.4453329 1249.6328,58.1484562 C1249.6328,58.8515795 1249.80858,59.4961093 1250.16015,60.0820454 C1250.51171,60.6679815 1250.98046,61.1367303 1251.56639,61.488292 C1252.15233,61.8398537 1252.79686,62.0156345 1253.49998,62.0156345 C1254.20311,62.0156345 1254.84764,61.8398537 1255.43357,61.488292 C1256.01951,61.1367303 1256.48826,60.6679815 1256.83982,60.0820454 C1257.19138,59.4961093 1257.36716,58.8515795 1257.36716,58.1484562 C1257.36716,57.4453329 1257.19138,56.8008032 1256.83982,56.2148671 C1256.48826,55.628931 1256.01951,55.1601821 1255.43357,54.8086204 C1254.84764,54.4570588 1254.20311,54.2812779 1253.49998,54.2812779 Z M1259.59372,65.5898447 L1259.59372,64.8574246 C1259.59372,64.3691444 1259.44723,63.9296923 1259.15427,63.5390684 C1258.8613,63.1484444 1258.48044,62.8847732 1258.01169,62.7480546 L1256.66404,62.3671962 C1255.72654,63.0703195 1254.67185,63.4218811 1253.49998,63.4218811 C1252.32811,63.4218811 1251.27342,63.0703195 1250.33593,62.3671962 L1248.98827,62.7480546 C1248.51953,62.8847732 1248.13867,63.1484444 1247.8457,63.5390684 C1247.55273,63.9296923 1247.40625,64.3691444 1247.40625,64.8574246 L1247.40625,65.5898447 C1247.40625,65.8437505 1247.48925,66.0537107 1247.65527,66.219726 C1247.82128,66.3857414 1248.03125,66.4687489 1248.28515,66.4687489 L1258.71481,66.4687489 C1258.96872,66.4687489 1259.17868,66.3857414 1259.34469,66.219726 C1259.51071,66.0537107 1259.59372,65.8437505 1259.59372,65.5898447 Z" id="login-icon"/>
  </g>
</svg>
