<svg width="118px" height="25px" viewBox="0 0 118 24" xmlns="http://www.w3.org/2000/svg">
  <g id="Page-1" stroke="none" stroke-width="1" fill="none" fill-rule="evenodd">
      <g id="Group" transform="translate(34.588611, 0.000000)" fill="#222222">
        <path
          d="M5.10362566,16.1444891 L3.56290848,21.250427 L0,21.250427 L5.53695237,2.77179482 L4.28511966,2.62591088 L4.28511966,0 L11.0739047,0 L17.4775105,21.250427 L13.914602,21.250427 L12.3738849,16.1444891 L5.10362566,16.1444891 Z M8.85912379,3.0635627 L8.61838673,3.0635627 L5.77768943,13.2754384 L11.6516737,13.2754384 L8.85912379,3.0635627 Z"
          id="Shape"/>
        <path
          d="M23.6885267,21.250427 L20.2700604,21.250427 L20.2700604,5.73810156 L22.9663155,5.73810156 L23.2552,7.34282487 C24.6996223,5.98124145 26.2884869,5.25182176 28.2143834,5.25182176 C32.258766,5.25182176 32.9809772,7.73184871 32.9809772,12.5460187 L32.9809772,21.201799 L29.5625109,21.201799 L29.5625109,12.3515067 C29.5625109,9.38520001 29.3217739,8.02361659 27.2514351,8.02361659 C25.9033076,8.02361659 24.9403594,8.50989638 23.7366741,9.38520001 L23.7366741,21.250427 L23.6885267,21.250427 Z"
          id="Shape"/>
        <path
          d="M39.62532,9.82285182 C39.62532,10.9899233 40.2993838,11.3789472 42.5141647,11.9624829 C45.354862,12.6919026 47.5214956,13.4213223 47.5214956,16.7280249 C47.5214956,20.0347275 45.114125,21.6880788 41.6475113,21.6880788 C39.3845829,21.6880788 37.4105391,21.201799 36.0142641,20.6668912 L36.5920331,18.1868643 C38.1808976,18.6731441 39.6734674,18.9649119 40.7808579,18.9649119 C42.8030492,18.9649119 44.0548819,18.2354922 44.0548819,16.8252808 C44.0548819,15.3664415 43.0919337,15.2205575 40.6364157,14.5883938 C37.9401606,13.8589741 36.1587063,12.6432746 36.1587063,9.8714798 C36.1587063,6.46752125 38.9031088,5.30044974 41.6956587,5.30044974 C43.9585871,5.30044974 45.5955991,5.73810156 46.8955792,6.41889327 L46.3659577,8.94754819 C44.8252405,8.2181285 43.4289655,8.02361659 42.1771328,8.02361659 C40.6364157,8.02361659 39.62532,8.60715234 39.62532,9.82285182 Z"
          id="Shape"/>
        <polygon id="Shape"
                 points="70.5359585 5.73810156 66.97305 21.250427 62.7842251 21.250427 60.0398227 10.2118757 59.9435278 10.2118757 57.1991254 21.250427 53.0103005 21.250427 49.447392 5.73810156 52.9621531 5.73810156 55.2250815 17.8950964 55.3695237 17.8950964 58.4991055 5.73810156 61.484245 5.73810156 64.517532 17.8464684 64.6619742 17.8464684 67.0211974 5.73810156"/>
        <path
          d="M73.5692454,21.250427 L73.5692454,5.73810156 L76.1210582,5.73810156 L76.3136479,8.26675648 C76.9877117,6.56477721 78.8654607,5.49496166 80.5987675,5.49496166 C81.8987477,5.49496166 82.7654011,5.83535752 83.102433,6.02986943 L82.5728114,8.55852436 C82.0431899,8.36401244 81.465421,8.26675648 80.9357994,8.26675648 C79.25064,8.26675648 77.6617754,9.14206011 76.9877117,11.2330632 L76.9877117,21.201799 L73.5692454,21.201799 L73.5692454,21.250427 Z"
          id="Shape"/>
      </g>
      <path
        d="M21.3635539,17.5201903 L12.0624148,17.5201903 L6.49142001,18.960206 L3.34259687,19.7762149 L3.34259687,12.7681387 L0,12.7681387 L0,24.0002608 L12.4499623,20.7842258 L24.7061508,20.7842258 L24.7061508,12.7681387 L21.3635539,12.7681387 L21.3635539,17.5201903 Z M0,0 L0,8.01608709 L3.34259687,8.01608709 L3.34259687,3.31203598 L21.3635539,3.31203598 L21.3635539,8.01608709 L24.7061508,8.01608709 L24.7061508,0 L0,0 Z"
        id="Shape" fill="#EE5522"/>
  </g>
</svg>
