<svg width="20px" height="20px" viewBox="12 12 20 20" fill="#000" version="1.1" xmlns="http://www.w3.org/2000/svg">
  <path d="M24.5366313,26.4039914 C23.2389402,27.3286745 21.6511264,27.8725616 19.9362808,27.8725616 C15.5531937,27.8725616 12,24.3193678 12,19.9362808 C12,15.5531937 15.5531937,12 19.9362808,12 C24.3193678,12 27.8725616,15.5531937 27.8725616,19.9362808 C27.8725616,21.6511264 27.3286745,23.2389402 26.4039914,24.5366313 L31.6184091,29.751049 C32.1321209,30.2647607 32.1278378,31.086726 31.6182232,31.5963406 L31.5963406,31.6182232 C31.0880296,32.1265343 30.2605608,32.127921 29.751049,31.6184091 L24.5366313,26.4039914 Z M19.9362808,26.0052014 C23.2880533,26.0052014 26.0052014,23.2880533 26.0052014,19.9362808 C26.0052014,16.5845083 23.2880533,13.8673602 19.9362808,13.8673602 C16.5845083,13.8673602 13.8673602,16.5845083 13.8673602,19.9362808 C13.8673602,23.2880533 16.5845083,26.0052014 19.9362808,26.0052014 Z" id="search-copy"/>
</svg>
